# xmcd
#
# Track frame offsets: 
#        150
#        17216
#        34590
#        53828
#        69242
#        86635
#        102552
#        120888
#        136099
#        151303
#
# Disc length: 2250 seconds
#
# Revision: 0
# Processed by: cddbd v1.5.2PL0 Copyright (c) Steve Scherf et al.
# Submitted via: ExactAudioCopy v0.99pb3
#
DISCID=7508c80a
DTITLE=Blues Boy Willie - Back Again
DYEAR=2002
DGENRE=Blues
TTITLE0=Break Down And Cry
TTITLE1=Keep On Moving
TTITLE2=Got Some Loving
TTITLE3=Always Love You
TTITLE4=Down In Texas
TTITLE5=Tight Jeans
TTITLE6=Get Loose
TTITLE7=Love
TTITLE8=Greyhound Blues
TTITLE9=Blues Boy
EXTD=
EXTT0=
EXTT1=
EXTT2=
EXTT3=
EXTT4=
EXTT5=
EXTT6=
EXTT7=
EXTT8=
EXTT9=
PLAYORDER=
